<mxfile host="app.diagrams.net" agent="Mozilla/5.0 (Windows NT 10.0; Win64; x64) AppleWebKit/537.36 (KHTML, like Gecko) Chrome/131.0.0.0 Safari/537.36 Edg/131.0.0.0" version="26.0.11">
  <diagram name="Page-1" id="hQ-1x9BbB4eBENIIL7El">
    <mxGraphModel dx="2420" dy="1972" grid="0" gridSize="10" guides="0" tooltips="1" connect="1" arrows="1" fold="1" page="1" pageScale="1" pageWidth="850" pageHeight="1100" math="0" shadow="0">
      <root>
        <mxCell id="0" />
        <mxCell id="1" parent="0" />
        <mxCell id="YCz1P3o43b8qL185OjPD-27" value="" style="rounded=1;whiteSpace=wrap;html=1;" vertex="1" parent="1">
          <mxGeometry x="65" y="1263" width="648" height="60" as="geometry" />
        </mxCell>
        <mxCell id="YCz1P3o43b8qL185OjPD-23" value="" style="rounded=1;whiteSpace=wrap;html=1;" vertex="1" parent="1">
          <mxGeometry x="-72" y="1739" width="866" height="385" as="geometry" />
        </mxCell>
        <mxCell id="YCz1P3o43b8qL185OjPD-5" style="edgeStyle=orthogonalEdgeStyle;rounded=0;orthogonalLoop=1;jettySize=auto;html=1;" edge="1" parent="1" source="LPWXYnSDIeVFGLM9SnJD-1" target="LPWXYnSDIeVFGLM9SnJD-32">
          <mxGeometry relative="1" as="geometry" />
        </mxCell>
        <mxCell id="LPWXYnSDIeVFGLM9SnJD-1" value="Using existing data in Spire?&lt;div&gt;(Is the data you will utilize already available on Spire?)&lt;/div&gt;" style="rounded=1;whiteSpace=wrap;html=1;" parent="1" vertex="1">
          <mxGeometry x="303" y="24" width="170" height="60" as="geometry" />
        </mxCell>
        <mxCell id="LPWXYnSDIeVFGLM9SnJD-10" value="No" style="rounded=1;whiteSpace=wrap;html=1;" parent="1" vertex="1">
          <mxGeometry x="397" y="139" width="46" height="20" as="geometry" />
        </mxCell>
        <mxCell id="LPWXYnSDIeVFGLM9SnJD-16" value="&lt;ul&gt;&lt;li&gt;&lt;br&gt;&lt;/li&gt;&lt;/ul&gt;" style="rounded=1;whiteSpace=wrap;html=1;" parent="1" vertex="1">
          <mxGeometry x="-80" y="399" width="927" height="649" as="geometry" />
        </mxCell>
        <mxCell id="YCz1P3o43b8qL185OjPD-7" style="edgeStyle=orthogonalEdgeStyle;rounded=0;orthogonalLoop=1;jettySize=auto;html=1;exitX=0;exitY=0.5;exitDx=0;exitDy=0;" edge="1" parent="1" source="LPWXYnSDIeVFGLM9SnJD-18">
          <mxGeometry relative="1" as="geometry">
            <mxPoint x="125.28571428571468" y="250.42857142857156" as="targetPoint" />
          </mxGeometry>
        </mxCell>
        <mxCell id="LPWXYnSDIeVFGLM9SnJD-18" value="Do you have the Infrastructure (Data Asset/Container) to load the data in Spire&amp;nbsp;" style="rounded=1;whiteSpace=wrap;html=1;" parent="1" vertex="1">
          <mxGeometry x="250" y="220" width="320" height="60" as="geometry" />
        </mxCell>
        <mxCell id="YCz1P3o43b8qL185OjPD-24" style="edgeStyle=orthogonalEdgeStyle;rounded=0;orthogonalLoop=1;jettySize=auto;html=1;" edge="1" parent="1" source="LPWXYnSDIeVFGLM9SnJD-28">
          <mxGeometry relative="1" as="geometry">
            <mxPoint x="360.5" y="1736.095238095238" as="targetPoint" />
          </mxGeometry>
        </mxCell>
        <mxCell id="LPWXYnSDIeVFGLM9SnJD-28" value="Are you loading only Dummy Data on Spire" style="rounded=1;whiteSpace=wrap;html=1;" parent="1" vertex="1">
          <mxGeometry x="230" y="1603" width="261" height="60" as="geometry" />
        </mxCell>
        <UserObject label="&#xa;&lt;span style=&quot;color: rgb(0, 0, 0); font-family: Helvetica; font-size: 12px; font-style: normal; font-variant-ligatures: normal; font-variant-caps: normal; font-weight: 400; letter-spacing: normal; orphans: 2; text-align: center; text-indent: 0px; text-transform: none; widows: 2; word-spacing: 0px; -webkit-text-stroke-width: 0px; white-space: normal; background-color: rgb(251, 251, 251); text-decoration-thickness: initial; text-decoration-style: initial; text-decoration-color: initial; display: inline !important; float: none;&quot;&gt;Please get familiar with&amp;nbsp;Spire internal data sharing process:&amp;nbsp;&lt;/span&gt;&lt;a style=&quot;forced-color-adjust: none; font-family: Helvetica; font-size: 12px; font-style: normal; font-variant-ligatures: normal; font-variant-caps: normal; font-weight: 400; letter-spacing: normal; orphans: 2; text-align: center; text-indent: 0px; text-transform: none; widows: 2; word-spacing: 0px; -webkit-text-stroke-width: 0px; white-space: normal; background-color: rgb(251, 251, 251);&quot; href=&quot;https://mercedes-benz-mobility.atlassian.net/wiki/spaces/DSPL/pages/673218737/Spire+internal+data+sharing&quot;&gt;Spire internal data sharing - spire - Confluence&lt;/a&gt;&lt;span style=&quot;color: rgb(0, 0, 0); font-family: Helvetica; font-size: 12px; font-style: normal; font-variant-ligatures: normal; font-variant-caps: normal; font-weight: 400; letter-spacing: normal; orphans: 2; text-align: center; text-indent: 0px; text-transform: none; widows: 2; word-spacing: 0px; -webkit-text-stroke-width: 0px; white-space: normal; background-color: rgb(251, 251, 251); text-decoration-thickness: initial; text-decoration-style: initial; text-decoration-color: initial; display: inline !important; float: none;&quot;&gt;&amp;nbsp;and raise the request via Service Desk&amp;nbsp;&amp;nbsp;&lt;/span&gt;&lt;a style=&quot;forced-color-adjust: none; font-family: Helvetica; font-size: 12px; font-style: normal; font-variant-ligatures: normal; font-variant-caps: normal; font-weight: 400; letter-spacing: normal; orphans: 2; text-align: center; text-indent: 0px; text-transform: none; widows: 2; word-spacing: 0px; -webkit-text-stroke-width: 0px; white-space: normal; background-color: rgb(251, 251, 251);&quot; href=&quot;https://mercedes-benz-mobility.atlassian.net/servicedesk/customer/portal/48/group/164/create/971&quot;&gt;Connect spire Internal Elements - spire - Jira Service Management&lt;/a&gt;&#xa;&#xa;" link="&#xa;&lt;span style=&quot;color: rgb(0, 0, 0); font-family: Helvetica; font-size: 12px; font-style: normal; font-variant-ligatures: normal; font-variant-caps: normal; font-weight: 400; letter-spacing: normal; orphans: 2; text-align: center; text-indent: 0px; text-transform: none; widows: 2; word-spacing: 0px; -webkit-text-stroke-width: 0px; white-space: normal; background-color: rgb(251, 251, 251); text-decoration-thickness: initial; text-decoration-style: initial; text-decoration-color: initial; display: inline !important; float: none;&quot;&gt;Please get familiar with&amp;nbsp;Spire internal data sharing process:&amp;nbsp;&lt;/span&gt;&lt;a style=&quot;forced-color-adjust: none; font-family: Helvetica; font-size: 12px; font-style: normal; font-variant-ligatures: normal; font-variant-caps: normal; font-weight: 400; letter-spacing: normal; orphans: 2; text-align: center; text-indent: 0px; text-transform: none; widows: 2; word-spacing: 0px; -webkit-text-stroke-width: 0px; white-space: normal; background-color: rgb(251, 251, 251);&quot; href=&quot;https://mercedes-benz-mobility.atlassian.net/wiki/spaces/DSPL/pages/673218737/Spire+internal+data+sharing&quot;&gt;Spire internal data sharing - spire - Confluence&lt;/a&gt;&lt;span style=&quot;color: rgb(0, 0, 0); font-family: Helvetica; font-size: 12px; font-style: normal; font-variant-ligatures: normal; font-variant-caps: normal; font-weight: 400; letter-spacing: normal; orphans: 2; text-align: center; text-indent: 0px; text-transform: none; widows: 2; word-spacing: 0px; -webkit-text-stroke-width: 0px; white-space: normal; background-color: rgb(251, 251, 251); text-decoration-thickness: initial; text-decoration-style: initial; text-decoration-color: initial; display: inline !important; float: none;&quot;&gt;&amp;nbsp;and raise the request via Service Desk&amp;nbsp;&amp;nbsp;&lt;/span&gt;&lt;a style=&quot;forced-color-adjust: none; font-family: Helvetica; font-size: 12px; font-style: normal; font-variant-ligatures: normal; font-variant-caps: normal; font-weight: 400; letter-spacing: normal; orphans: 2; text-align: center; text-indent: 0px; text-transform: none; widows: 2; word-spacing: 0px; -webkit-text-stroke-width: 0px; white-space: normal; background-color: rgb(251, 251, 251);&quot; href=&quot;https://mercedes-benz-mobility.atlassian.net/servicedesk/customer/portal/48/group/164/create/971&quot;&gt;Connect spire Internal Elements - spire - Jira Service Management&lt;/a&gt;&#xa;&#xa;" id="LPWXYnSDIeVFGLM9SnJD-32">
          <mxCell style="rounded=0;whiteSpace=wrap;html=1;" parent="1" vertex="1">
            <mxGeometry x="-229" y="-2" width="340" height="110" as="geometry" />
          </mxCell>
        </UserObject>
        <mxCell id="LPWXYnSDIeVFGLM9SnJD-85" value="Dummy Data Load" style="shape=table;startSize=30;container=1;collapsible=0;childLayout=tableLayout;" parent="1" vertex="1">
          <mxGeometry x="-22" y="1785" width="785" height="310" as="geometry" />
        </mxCell>
        <mxCell id="LPWXYnSDIeVFGLM9SnJD-86" value="" style="shape=tableRow;horizontal=0;startSize=0;swimlaneHead=0;swimlaneBody=0;strokeColor=inherit;top=0;left=0;bottom=0;right=0;collapsible=0;dropTarget=0;fillColor=none;points=[[0,0.5],[1,0.5]];portConstraint=eastwest;" parent="LPWXYnSDIeVFGLM9SnJD-85" vertex="1">
          <mxGeometry y="30" width="785" height="94" as="geometry" />
        </mxCell>
        <mxCell id="LPWXYnSDIeVFGLM9SnJD-95" value="Condition" style="shape=partialRectangle;html=1;whiteSpace=wrap;connectable=0;strokeColor=inherit;overflow=hidden;fillColor=none;top=0;left=0;bottom=0;right=0;pointerEvents=1;" parent="LPWXYnSDIeVFGLM9SnJD-86" vertex="1">
          <mxGeometry width="365" height="94" as="geometry">
            <mxRectangle width="365" height="94" as="alternateBounds" />
          </mxGeometry>
        </mxCell>
        <mxCell id="LPWXYnSDIeVFGLM9SnJD-87" value="Deliverable" style="shape=partialRectangle;html=1;whiteSpace=wrap;connectable=0;strokeColor=inherit;overflow=hidden;fillColor=none;top=0;left=0;bottom=0;right=0;pointerEvents=1;" parent="LPWXYnSDIeVFGLM9SnJD-86" vertex="1">
          <mxGeometry x="365" width="180" height="94" as="geometry">
            <mxRectangle width="180" height="94" as="alternateBounds" />
          </mxGeometry>
        </mxCell>
        <mxCell id="LPWXYnSDIeVFGLM9SnJD-88" value="Description" style="shape=partialRectangle;html=1;whiteSpace=wrap;connectable=0;strokeColor=inherit;overflow=hidden;fillColor=none;top=0;left=0;bottom=0;right=0;pointerEvents=1;" parent="LPWXYnSDIeVFGLM9SnJD-86" vertex="1">
          <mxGeometry x="545" width="240" height="94" as="geometry">
            <mxRectangle width="240" height="94" as="alternateBounds" />
          </mxGeometry>
        </mxCell>
        <mxCell id="LPWXYnSDIeVFGLM9SnJD-89" value="" style="shape=tableRow;horizontal=0;startSize=0;swimlaneHead=0;swimlaneBody=0;strokeColor=inherit;top=0;left=0;bottom=0;right=0;collapsible=0;dropTarget=0;fillColor=none;points=[[0,0.5],[1,0.5]];portConstraint=eastwest;" parent="LPWXYnSDIeVFGLM9SnJD-85" vertex="1">
          <mxGeometry y="124" width="785" height="92" as="geometry" />
        </mxCell>
        <mxCell id="LPWXYnSDIeVFGLM9SnJD-96" value="&lt;b&gt;a. The system is not in HQ&lt;/b&gt;&lt;div&gt;&lt;b&gt;b. It is not a manual file upload&lt;/b&gt;&lt;/div&gt;&lt;div&gt;&lt;b&gt;c. External system of MB group&amp;nbsp;&lt;/b&gt;&lt;/div&gt;" style="shape=partialRectangle;html=1;whiteSpace=wrap;connectable=0;strokeColor=inherit;overflow=hidden;fillColor=none;top=0;left=0;bottom=0;right=0;pointerEvents=1;" parent="LPWXYnSDIeVFGLM9SnJD-89" vertex="1">
          <mxGeometry width="365" height="92" as="geometry">
            <mxRectangle width="365" height="92" as="alternateBounds" />
          </mxGeometry>
        </mxCell>
        <mxCell id="LPWXYnSDIeVFGLM9SnJD-90" value="&#xa;&lt;strong style=&quot;forced-color-adjust: none; color: rgb(0, 0, 0); font-family: Helvetica; font-size: 12px; font-style: normal; font-variant-ligatures: normal; font-variant-caps: normal; letter-spacing: normal; orphans: 2; text-indent: 0px; text-transform: none; widows: 2; word-spacing: 0px; -webkit-text-stroke-width: 0px; white-space: normal; background-color: rgb(251, 251, 251); text-decoration-thickness: initial; text-decoration-style: initial; text-decoration-color: initial; text-align: left;&quot; data-prosemirror-mark-name=&quot;strong&quot; data-prosemirror-content-type=&quot;mark&quot;&gt;ISO approval for each environment&lt;/strong&gt;&#xa;&#xa;" style="shape=partialRectangle;html=1;whiteSpace=wrap;connectable=0;strokeColor=inherit;overflow=hidden;fillColor=none;top=0;left=0;bottom=0;right=0;pointerEvents=1;" parent="LPWXYnSDIeVFGLM9SnJD-89" vertex="1">
          <mxGeometry x="365" width="180" height="92" as="geometry">
            <mxRectangle width="180" height="92" as="alternateBounds" />
          </mxGeometry>
        </mxCell>
        <mxCell id="LPWXYnSDIeVFGLM9SnJD-91" value="" style="shape=partialRectangle;html=1;whiteSpace=wrap;connectable=0;strokeColor=inherit;overflow=hidden;fillColor=none;top=0;left=0;bottom=0;right=0;pointerEvents=1;" parent="LPWXYnSDIeVFGLM9SnJD-89" vertex="1">
          <mxGeometry x="545" width="240" height="92" as="geometry">
            <mxRectangle width="240" height="92" as="alternateBounds" />
          </mxGeometry>
        </mxCell>
        <mxCell id="LPWXYnSDIeVFGLM9SnJD-92" style="shape=tableRow;horizontal=0;startSize=0;swimlaneHead=0;swimlaneBody=0;strokeColor=inherit;top=0;left=0;bottom=0;right=0;collapsible=0;dropTarget=0;fillColor=none;points=[[0,0.5],[1,0.5]];portConstraint=eastwest;" parent="LPWXYnSDIeVFGLM9SnJD-85" vertex="1">
          <mxGeometry y="216" width="785" height="94" as="geometry" />
        </mxCell>
        <mxCell id="LPWXYnSDIeVFGLM9SnJD-97" value="&lt;strong style=&quot;color: light-dark(rgb(0, 0, 0), rgb(255, 255, 255)); text-align: left; background-color: transparent;&quot; data-prosemirror-mark-name=&quot;strong&quot; data-prosemirror-content-type=&quot;mark&quot;&gt;&lt;i&gt;Once per Use Case if you are load any new data attributes&amp;nbsp;&lt;/i&gt;&lt;/strong&gt;" style="shape=partialRectangle;html=1;whiteSpace=wrap;connectable=0;strokeColor=inherit;overflow=hidden;fillColor=none;top=0;left=0;bottom=0;right=0;pointerEvents=1;" parent="LPWXYnSDIeVFGLM9SnJD-92" vertex="1">
          <mxGeometry width="365" height="94" as="geometry">
            <mxRectangle width="365" height="94" as="alternateBounds" />
          </mxGeometry>
        </mxCell>
        <mxCell id="LPWXYnSDIeVFGLM9SnJD-93" value="&lt;strong style=&quot;text-align: left;&quot; data-prosemirror-mark-name=&quot;strong&quot; data-prosemirror-content-type=&quot;mark&quot;&gt;Data Point List&amp;nbsp;&lt;/strong&gt;" style="shape=partialRectangle;html=1;whiteSpace=wrap;connectable=0;strokeColor=inherit;overflow=hidden;fillColor=none;top=0;left=0;bottom=0;right=0;pointerEvents=1;" parent="LPWXYnSDIeVFGLM9SnJD-92" vertex="1">
          <mxGeometry x="365" width="180" height="94" as="geometry">
            <mxRectangle width="180" height="94" as="alternateBounds" />
          </mxGeometry>
        </mxCell>
        <mxCell id="LPWXYnSDIeVFGLM9SnJD-94" style="shape=partialRectangle;html=1;whiteSpace=wrap;connectable=0;strokeColor=inherit;overflow=hidden;fillColor=none;top=0;left=0;bottom=0;right=0;pointerEvents=1;" parent="LPWXYnSDIeVFGLM9SnJD-92" vertex="1">
          <mxGeometry x="545" width="240" height="94" as="geometry">
            <mxRectangle width="240" height="94" as="alternateBounds" />
          </mxGeometry>
        </mxCell>
        <mxCell id="LPWXYnSDIeVFGLM9SnJD-98" value="Are you loading Prod Data on Spire" style="rounded=1;whiteSpace=wrap;html=1;" parent="1" vertex="1">
          <mxGeometry x="208" y="3149" width="320" height="60" as="geometry" />
        </mxCell>
        <mxCell id="LPWXYnSDIeVFGLM9SnJD-99" value="Prod Data Load" style="shape=table;startSize=30;container=1;collapsible=0;childLayout=tableLayout;" parent="1" vertex="1">
          <mxGeometry x="-9" y="3309" width="785" height="684" as="geometry" />
        </mxCell>
        <mxCell id="LPWXYnSDIeVFGLM9SnJD-100" value="" style="shape=tableRow;horizontal=0;startSize=0;swimlaneHead=0;swimlaneBody=0;strokeColor=inherit;top=0;left=0;bottom=0;right=0;collapsible=0;dropTarget=0;fillColor=none;points=[[0,0.5],[1,0.5]];portConstraint=eastwest;" parent="LPWXYnSDIeVFGLM9SnJD-99" vertex="1">
          <mxGeometry y="30" width="785" height="94" as="geometry" />
        </mxCell>
        <mxCell id="LPWXYnSDIeVFGLM9SnJD-101" value="Condition" style="shape=partialRectangle;html=1;whiteSpace=wrap;connectable=0;strokeColor=inherit;overflow=hidden;fillColor=none;top=0;left=0;bottom=0;right=0;pointerEvents=1;" parent="LPWXYnSDIeVFGLM9SnJD-100" vertex="1">
          <mxGeometry width="355" height="94" as="geometry">
            <mxRectangle width="355" height="94" as="alternateBounds" />
          </mxGeometry>
        </mxCell>
        <mxCell id="LPWXYnSDIeVFGLM9SnJD-102" value="Deliverable" style="shape=partialRectangle;html=1;whiteSpace=wrap;connectable=0;strokeColor=inherit;overflow=hidden;fillColor=none;top=0;left=0;bottom=0;right=0;pointerEvents=1;" parent="LPWXYnSDIeVFGLM9SnJD-100" vertex="1">
          <mxGeometry x="355" width="190" height="94" as="geometry">
            <mxRectangle width="190" height="94" as="alternateBounds" />
          </mxGeometry>
        </mxCell>
        <mxCell id="LPWXYnSDIeVFGLM9SnJD-103" value="Description" style="shape=partialRectangle;html=1;whiteSpace=wrap;connectable=0;strokeColor=inherit;overflow=hidden;fillColor=none;top=0;left=0;bottom=0;right=0;pointerEvents=1;" parent="LPWXYnSDIeVFGLM9SnJD-100" vertex="1">
          <mxGeometry x="545" width="240" height="94" as="geometry">
            <mxRectangle width="240" height="94" as="alternateBounds" />
          </mxGeometry>
        </mxCell>
        <mxCell id="LPWXYnSDIeVFGLM9SnJD-124" value="" style="shape=tableRow;horizontal=0;startSize=0;swimlaneHead=0;swimlaneBody=0;strokeColor=inherit;top=0;left=0;bottom=0;right=0;collapsible=0;dropTarget=0;fillColor=none;points=[[0,0.5],[1,0.5]];portConstraint=eastwest;" parent="LPWXYnSDIeVFGLM9SnJD-99" vertex="1">
          <mxGeometry y="124" width="785" height="92" as="geometry" />
        </mxCell>
        <mxCell id="LPWXYnSDIeVFGLM9SnJD-125" value="&lt;b&gt;No DEV or INT connection for dummy data load&lt;/b&gt;" style="shape=partialRectangle;html=1;whiteSpace=wrap;connectable=0;strokeColor=inherit;overflow=hidden;fillColor=none;top=0;left=0;bottom=0;right=0;pointerEvents=1;" parent="LPWXYnSDIeVFGLM9SnJD-124" vertex="1">
          <mxGeometry width="355" height="92" as="geometry">
            <mxRectangle width="355" height="92" as="alternateBounds" />
          </mxGeometry>
        </mxCell>
        <mxCell id="LPWXYnSDIeVFGLM9SnJD-126" value="&lt;b&gt;Dummy data load deliverables&lt;/b&gt;" style="shape=partialRectangle;html=1;whiteSpace=wrap;connectable=0;strokeColor=inherit;overflow=hidden;fillColor=none;top=0;left=0;bottom=0;right=0;pointerEvents=1;" parent="LPWXYnSDIeVFGLM9SnJD-124" vertex="1">
          <mxGeometry x="355" width="190" height="92" as="geometry">
            <mxRectangle width="190" height="92" as="alternateBounds" />
          </mxGeometry>
        </mxCell>
        <mxCell id="LPWXYnSDIeVFGLM9SnJD-127" value="Provide the previous mentioned deliverables too" style="shape=partialRectangle;html=1;whiteSpace=wrap;connectable=0;strokeColor=inherit;overflow=hidden;fillColor=none;top=0;left=0;bottom=0;right=0;pointerEvents=1;" parent="LPWXYnSDIeVFGLM9SnJD-124" vertex="1">
          <mxGeometry x="545" width="240" height="92" as="geometry">
            <mxRectangle width="240" height="92" as="alternateBounds" />
          </mxGeometry>
        </mxCell>
        <mxCell id="LPWXYnSDIeVFGLM9SnJD-104" value="" style="shape=tableRow;horizontal=0;startSize=0;swimlaneHead=0;swimlaneBody=0;strokeColor=inherit;top=0;left=0;bottom=0;right=0;collapsible=0;dropTarget=0;fillColor=none;points=[[0,0.5],[1,0.5]];portConstraint=eastwest;" parent="LPWXYnSDIeVFGLM9SnJD-99" vertex="1">
          <mxGeometry y="216" width="785" height="92" as="geometry" />
        </mxCell>
        <mxCell id="LPWXYnSDIeVFGLM9SnJD-105" value="&lt;b&gt;Once per use case&lt;/b&gt;" style="shape=partialRectangle;html=1;whiteSpace=wrap;connectable=0;strokeColor=inherit;overflow=hidden;fillColor=none;top=0;left=0;bottom=0;right=0;pointerEvents=1;" parent="LPWXYnSDIeVFGLM9SnJD-104" vertex="1">
          <mxGeometry width="355" height="92" as="geometry">
            <mxRectangle width="355" height="92" as="alternateBounds" />
          </mxGeometry>
        </mxCell>
        <mxCell id="LPWXYnSDIeVFGLM9SnJD-106" value="&lt;b&gt;Service Agreement Confirmation&lt;/b&gt;" style="shape=partialRectangle;html=1;whiteSpace=wrap;connectable=0;strokeColor=inherit;overflow=hidden;fillColor=none;top=0;left=0;bottom=0;right=0;pointerEvents=1;" parent="LPWXYnSDIeVFGLM9SnJD-104" vertex="1">
          <mxGeometry x="355" width="190" height="92" as="geometry">
            <mxRectangle width="190" height="92" as="alternateBounds" />
          </mxGeometry>
        </mxCell>
        <mxCell id="LPWXYnSDIeVFGLM9SnJD-107" value="&lt;h5 data-pm-slice=&quot;1 1 []&quot; data-prosemirror-node-block=&quot;true&quot; data-prosemirror-node-name=&quot;heading&quot; data-prosemirror-content-type=&quot;node&quot; data-local-id=&quot;a94f655c-dc84-40ea-876c-7d7ab082163d&quot;&gt;&lt;a data-prosemirror-mark-name=&quot;link&quot; data-prosemirror-content-type=&quot;mark&quot; href=&quot;https://social.cloud.corpintra.net/docs/DOC-523059&quot;&gt;IT Service Agreement&amp;nbsp;&lt;/a&gt;&lt;/h5&gt;" style="shape=partialRectangle;html=1;whiteSpace=wrap;connectable=0;strokeColor=inherit;overflow=hidden;fillColor=none;top=0;left=0;bottom=0;right=0;pointerEvents=1;" parent="LPWXYnSDIeVFGLM9SnJD-104" vertex="1">
          <mxGeometry x="545" width="240" height="92" as="geometry">
            <mxRectangle width="240" height="92" as="alternateBounds" />
          </mxGeometry>
        </mxCell>
        <mxCell id="LPWXYnSDIeVFGLM9SnJD-112" style="shape=tableRow;horizontal=0;startSize=0;swimlaneHead=0;swimlaneBody=0;strokeColor=inherit;top=0;left=0;bottom=0;right=0;collapsible=0;dropTarget=0;fillColor=none;points=[[0,0.5],[1,0.5]];portConstraint=eastwest;" parent="LPWXYnSDIeVFGLM9SnJD-99" vertex="1">
          <mxGeometry y="308" width="785" height="94" as="geometry" />
        </mxCell>
        <mxCell id="LPWXYnSDIeVFGLM9SnJD-113" value="&lt;div style=&quot;&quot;&gt;&lt;span style=&quot;background-color: transparent;&quot;&gt;&lt;b&gt;&lt;i&gt;Once per use case, or if using different deletion procedure for different systems then for each procedure&lt;/i&gt;&lt;/b&gt;&lt;/span&gt;&lt;/div&gt;&lt;div style=&quot;&quot;&gt;&lt;span style=&quot;background-color: transparent;&quot;&gt;&lt;b&gt;&lt;i&gt;&lt;br&gt;&lt;/i&gt;&lt;/b&gt;&lt;/span&gt;&lt;/div&gt;" style="shape=partialRectangle;html=1;whiteSpace=wrap;connectable=0;strokeColor=inherit;overflow=hidden;fillColor=none;top=0;left=0;bottom=0;right=0;pointerEvents=1;" parent="LPWXYnSDIeVFGLM9SnJD-112" vertex="1">
          <mxGeometry width="355" height="94" as="geometry">
            <mxRectangle width="355" height="94" as="alternateBounds" />
          </mxGeometry>
        </mxCell>
        <mxCell id="LPWXYnSDIeVFGLM9SnJD-114" value="&lt;strong style=&quot;color: rgb(23, 43, 77); font-family: -apple-system, BlinkMacSystemFont, &amp;quot;Segoe UI&amp;quot;, Roboto, Oxygen, Ubuntu, &amp;quot;Fira Sans&amp;quot;, &amp;quot;Droid Sans&amp;quot;, &amp;quot;Helvetica Neue&amp;quot;, sans-serif; font-size: 14px; letter-spacing: -0.07px; text-align: start; white-space-collapse: preserve; background-color: rgb(255, 255, 255);&quot; data-renderer-mark=&quot;true&quot;&gt;Data Deletion Concept&lt;/strong&gt;" style="shape=partialRectangle;html=1;whiteSpace=wrap;connectable=0;strokeColor=inherit;overflow=hidden;fillColor=none;top=0;left=0;bottom=0;right=0;pointerEvents=1;" parent="LPWXYnSDIeVFGLM9SnJD-112" vertex="1">
          <mxGeometry x="355" width="190" height="94" as="geometry">
            <mxRectangle width="190" height="94" as="alternateBounds" />
          </mxGeometry>
        </mxCell>
        <mxCell id="LPWXYnSDIeVFGLM9SnJD-115" style="shape=partialRectangle;html=1;whiteSpace=wrap;connectable=0;strokeColor=inherit;overflow=hidden;fillColor=none;top=0;left=0;bottom=0;right=0;pointerEvents=1;" parent="LPWXYnSDIeVFGLM9SnJD-112" vertex="1">
          <mxGeometry x="545" width="240" height="94" as="geometry">
            <mxRectangle width="240" height="94" as="alternateBounds" />
          </mxGeometry>
        </mxCell>
        <mxCell id="LPWXYnSDIeVFGLM9SnJD-116" style="shape=tableRow;horizontal=0;startSize=0;swimlaneHead=0;swimlaneBody=0;strokeColor=inherit;top=0;left=0;bottom=0;right=0;collapsible=0;dropTarget=0;fillColor=none;points=[[0,0.5],[1,0.5]];portConstraint=eastwest;" parent="LPWXYnSDIeVFGLM9SnJD-99" vertex="1">
          <mxGeometry y="402" width="785" height="94" as="geometry" />
        </mxCell>
        <mxCell id="LPWXYnSDIeVFGLM9SnJD-117" value="&lt;div style=&quot;&quot;&gt;&lt;span style=&quot;background-color: transparent;&quot;&gt;&lt;b&gt;&lt;i&gt;If you plan to process data from one of the Critical Markets (China, Russia, South Korea, Malaysia, Israel, Japan), once per critical market legal entity&lt;/i&gt;&lt;/b&gt;&lt;/span&gt;&lt;/div&gt;" style="shape=partialRectangle;html=1;whiteSpace=wrap;connectable=0;strokeColor=inherit;overflow=hidden;fillColor=none;top=0;left=0;bottom=0;right=0;pointerEvents=1;align=center;" parent="LPWXYnSDIeVFGLM9SnJD-116" vertex="1">
          <mxGeometry width="355" height="94" as="geometry">
            <mxRectangle width="355" height="94" as="alternateBounds" />
          </mxGeometry>
        </mxCell>
        <mxCell id="LPWXYnSDIeVFGLM9SnJD-118" value="&lt;strong style=&quot;color: rgb(23, 43, 77); font-family: -apple-system, BlinkMacSystemFont, &amp;quot;Segoe UI&amp;quot;, Roboto, Oxygen, Ubuntu, &amp;quot;Fira Sans&amp;quot;, &amp;quot;Droid Sans&amp;quot;, &amp;quot;Helvetica Neue&amp;quot;, sans-serif; font-size: 14px; letter-spacing: -0.07px; text-align: start; white-space-collapse: preserve; background-color: rgb(255, 255, 255);&quot; data-renderer-mark=&quot;true&quot;&gt;Mandatory Local Legal Risk&lt;/strong&gt;" style="shape=partialRectangle;html=1;whiteSpace=wrap;connectable=0;strokeColor=inherit;overflow=hidden;fillColor=none;top=0;left=0;bottom=0;right=0;pointerEvents=1;" parent="LPWXYnSDIeVFGLM9SnJD-116" vertex="1">
          <mxGeometry x="355" width="190" height="94" as="geometry">
            <mxRectangle width="190" height="94" as="alternateBounds" />
          </mxGeometry>
        </mxCell>
        <mxCell id="LPWXYnSDIeVFGLM9SnJD-119" style="shape=partialRectangle;html=1;whiteSpace=wrap;connectable=0;strokeColor=inherit;overflow=hidden;fillColor=none;top=0;left=0;bottom=0;right=0;pointerEvents=1;" parent="LPWXYnSDIeVFGLM9SnJD-116" vertex="1">
          <mxGeometry x="545" width="240" height="94" as="geometry">
            <mxRectangle width="240" height="94" as="alternateBounds" />
          </mxGeometry>
        </mxCell>
        <mxCell id="LPWXYnSDIeVFGLM9SnJD-120" style="shape=tableRow;horizontal=0;startSize=0;swimlaneHead=0;swimlaneBody=0;strokeColor=inherit;top=0;left=0;bottom=0;right=0;collapsible=0;dropTarget=0;fillColor=none;points=[[0,0.5],[1,0.5]];portConstraint=eastwest;" parent="LPWXYnSDIeVFGLM9SnJD-99" vertex="1">
          <mxGeometry y="496" width="785" height="94" as="geometry" />
        </mxCell>
        <mxCell id="LPWXYnSDIeVFGLM9SnJD-121" value="&lt;strong style=&quot;color: light-dark(rgb(0, 0, 0), rgb(255, 255, 255)); text-align: left; background-color: transparent;&quot; data-prosemirror-mark-name=&quot;strong&quot; data-prosemirror-content-type=&quot;mark&quot;&gt;&lt;i&gt;If you are processing any personal data&lt;/i&gt;&lt;/strong&gt;" style="shape=partialRectangle;html=1;whiteSpace=wrap;connectable=0;strokeColor=inherit;overflow=hidden;fillColor=none;top=0;left=0;bottom=0;right=0;pointerEvents=1;" parent="LPWXYnSDIeVFGLM9SnJD-120" vertex="1">
          <mxGeometry width="355" height="94" as="geometry">
            <mxRectangle width="355" height="94" as="alternateBounds" />
          </mxGeometry>
        </mxCell>
        <mxCell id="LPWXYnSDIeVFGLM9SnJD-122" value="&lt;strong style=&quot;color: rgb(23, 43, 77); font-family: -apple-system, BlinkMacSystemFont, &amp;quot;Segoe UI&amp;quot;, Roboto, Oxygen, Ubuntu, &amp;quot;Fira Sans&amp;quot;, &amp;quot;Droid Sans&amp;quot;, &amp;quot;Helvetica Neue&amp;quot;, sans-serif; font-size: 14px; letter-spacing: -0.07px; text-align: start; white-space-collapse: preserve; background-color: rgb(255, 255, 255);&quot; data-renderer-mark=&quot;true&quot;&gt;Data Protection Agreement&lt;/strong&gt;" style="shape=partialRectangle;html=1;whiteSpace=wrap;connectable=0;strokeColor=inherit;overflow=hidden;fillColor=none;top=0;left=0;bottom=0;right=0;pointerEvents=1;" parent="LPWXYnSDIeVFGLM9SnJD-120" vertex="1">
          <mxGeometry x="355" width="190" height="94" as="geometry">
            <mxRectangle width="190" height="94" as="alternateBounds" />
          </mxGeometry>
        </mxCell>
        <mxCell id="LPWXYnSDIeVFGLM9SnJD-123" value="Data Protection Assessment&amp;nbsp;&lt;div&gt;Data Protection Agreement&lt;/div&gt;" style="shape=partialRectangle;html=1;whiteSpace=wrap;connectable=0;strokeColor=inherit;overflow=hidden;fillColor=none;top=0;left=0;bottom=0;right=0;pointerEvents=1;" parent="LPWXYnSDIeVFGLM9SnJD-120" vertex="1">
          <mxGeometry x="545" width="240" height="94" as="geometry">
            <mxRectangle width="240" height="94" as="alternateBounds" />
          </mxGeometry>
        </mxCell>
        <mxCell id="LPWXYnSDIeVFGLM9SnJD-108" style="shape=tableRow;horizontal=0;startSize=0;swimlaneHead=0;swimlaneBody=0;strokeColor=inherit;top=0;left=0;bottom=0;right=0;collapsible=0;dropTarget=0;fillColor=none;points=[[0,0.5],[1,0.5]];portConstraint=eastwest;" parent="LPWXYnSDIeVFGLM9SnJD-99" vertex="1">
          <mxGeometry y="590" width="785" height="94" as="geometry" />
        </mxCell>
        <mxCell id="LPWXYnSDIeVFGLM9SnJD-109" value="&lt;b&gt;If you do not have any contract to process the data&lt;/b&gt;" style="shape=partialRectangle;html=1;whiteSpace=wrap;connectable=0;strokeColor=inherit;overflow=hidden;fillColor=none;top=0;left=0;bottom=0;right=0;pointerEvents=1;" parent="LPWXYnSDIeVFGLM9SnJD-108" vertex="1">
          <mxGeometry width="355" height="94" as="geometry">
            <mxRectangle width="355" height="94" as="alternateBounds" />
          </mxGeometry>
        </mxCell>
        <mxCell id="LPWXYnSDIeVFGLM9SnJD-110" value="&lt;strong style=&quot;color: rgb(23, 43, 77); font-family: -apple-system, BlinkMacSystemFont, &amp;quot;Segoe UI&amp;quot;, Roboto, Oxygen, Ubuntu, &amp;quot;Fira Sans&amp;quot;, &amp;quot;Droid Sans&amp;quot;, &amp;quot;Helvetica Neue&amp;quot;, sans-serif; font-size: 14px; letter-spacing: -0.07px; text-align: start; white-space-collapse: preserve; background-color: rgb(255, 255, 255);&quot; data-renderer-mark=&quot;true&quot;&gt;C4MB Contract&lt;/strong&gt;" style="shape=partialRectangle;html=1;whiteSpace=wrap;connectable=0;strokeColor=inherit;overflow=hidden;fillColor=none;top=0;left=0;bottom=0;right=0;pointerEvents=1;" parent="LPWXYnSDIeVFGLM9SnJD-108" vertex="1">
          <mxGeometry x="355" width="190" height="94" as="geometry">
            <mxRectangle width="190" height="94" as="alternateBounds" />
          </mxGeometry>
        </mxCell>
        <mxCell id="LPWXYnSDIeVFGLM9SnJD-111" value="" style="shape=partialRectangle;html=1;whiteSpace=wrap;connectable=0;strokeColor=inherit;overflow=hidden;fillColor=none;top=0;left=0;bottom=0;right=0;pointerEvents=1;" parent="LPWXYnSDIeVFGLM9SnJD-108" vertex="1">
          <mxGeometry x="545" width="240" height="94" as="geometry">
            <mxRectangle width="240" height="94" as="alternateBounds" />
          </mxGeometry>
        </mxCell>
        <mxCell id="LPWXYnSDIeVFGLM9SnJD-129" value="Yes" style="rounded=1;whiteSpace=wrap;html=1;" parent="1" vertex="1">
          <mxGeometry x="419" y="317" width="60" height="20" as="geometry" />
        </mxCell>
        <mxCell id="LPWXYnSDIeVFGLM9SnJD-131" value="No" style="rounded=1;whiteSpace=wrap;html=1;" parent="1" vertex="1">
          <mxGeometry x="554" y="1642" width="90" height="20" as="geometry" />
        </mxCell>
        <mxCell id="LPWXYnSDIeVFGLM9SnJD-133" value="Yes" style="rounded=1;whiteSpace=wrap;html=1;" parent="1" vertex="1">
          <mxGeometry x="366" y="1711" width="60" height="20" as="geometry" />
        </mxCell>
        <mxCell id="YCz1P3o43b8qL185OjPD-9" style="edgeStyle=orthogonalEdgeStyle;rounded=0;orthogonalLoop=1;jettySize=auto;html=1;entryX=0.25;entryY=0;entryDx=0;entryDy=0;exitX=0.5;exitY=0;exitDx=0;exitDy=0;" edge="1" parent="1" source="LPWXYnSDIeVFGLM9SnJD-134" target="LPWXYnSDIeVFGLM9SnJD-18">
          <mxGeometry relative="1" as="geometry" />
        </mxCell>
        <UserObject label="Raise the Infrastructure request in Service Desk" link="&#xa;&lt;span style=&quot;color: rgb(0, 0, 0); font-family: Helvetica; font-size: 12px; font-style: normal; font-variant-ligatures: normal; font-variant-caps: normal; font-weight: 400; letter-spacing: normal; orphans: 2; text-align: center; text-indent: 0px; text-transform: none; widows: 2; word-spacing: 0px; -webkit-text-stroke-width: 0px; white-space: normal; background-color: rgb(251, 251, 251); text-decoration-thickness: initial; text-decoration-style: initial; text-decoration-color: initial; display: inline !important; float: none;&quot;&gt;Please get familiar with&amp;nbsp;Spire internal data sharing process:&amp;nbsp;&lt;/span&gt;&lt;a style=&quot;forced-color-adjust: none; font-family: Helvetica; font-size: 12px; font-style: normal; font-variant-ligatures: normal; font-variant-caps: normal; font-weight: 400; letter-spacing: normal; orphans: 2; text-align: center; text-indent: 0px; text-transform: none; widows: 2; word-spacing: 0px; -webkit-text-stroke-width: 0px; white-space: normal; background-color: rgb(251, 251, 251);&quot; href=&quot;https://mercedes-benz-mobility.atlassian.net/wiki/spaces/DSPL/pages/673218737/Spire+internal+data+sharing&quot;&gt;Spire internal data sharing - spire - Confluence&lt;/a&gt;&lt;span style=&quot;color: rgb(0, 0, 0); font-family: Helvetica; font-size: 12px; font-style: normal; font-variant-ligatures: normal; font-variant-caps: normal; font-weight: 400; letter-spacing: normal; orphans: 2; text-align: center; text-indent: 0px; text-transform: none; widows: 2; word-spacing: 0px; -webkit-text-stroke-width: 0px; white-space: normal; background-color: rgb(251, 251, 251); text-decoration-thickness: initial; text-decoration-style: initial; text-decoration-color: initial; display: inline !important; float: none;&quot;&gt;&amp;nbsp;and raise the request via Service Desk&amp;nbsp;&amp;nbsp;&lt;/span&gt;&lt;a style=&quot;forced-color-adjust: none; font-family: Helvetica; font-size: 12px; font-style: normal; font-variant-ligatures: normal; font-variant-caps: normal; font-weight: 400; letter-spacing: normal; orphans: 2; text-align: center; text-indent: 0px; text-transform: none; widows: 2; word-spacing: 0px; -webkit-text-stroke-width: 0px; white-space: normal; background-color: rgb(251, 251, 251);&quot; href=&quot;https://mercedes-benz-mobility.atlassian.net/servicedesk/customer/portal/48/group/164/create/971&quot;&gt;Connect spire Internal Elements - spire - Jira Service Management&lt;/a&gt;&#xa;&#xa;" id="LPWXYnSDIeVFGLM9SnJD-134">
          <mxCell style="rounded=0;whiteSpace=wrap;html=1;" parent="1" vertex="1">
            <mxGeometry x="-210" y="210" width="330" height="85" as="geometry" />
          </mxCell>
        </UserObject>
        <mxCell id="LPWXYnSDIeVFGLM9SnJD-9" value="Yes" style="rounded=1;whiteSpace=wrap;html=1;" parent="1" vertex="1">
          <mxGeometry x="185" y="63" width="60" height="20" as="geometry" />
        </mxCell>
        <mxCell id="LPWXYnSDIeVFGLM9SnJD-140" value="No" style="rounded=1;whiteSpace=wrap;html=1;" parent="1" vertex="1">
          <mxGeometry x="159" y="267" width="56" height="20" as="geometry" />
        </mxCell>
        <mxCell id="YCz1P3o43b8qL185OjPD-4" style="edgeStyle=orthogonalEdgeStyle;rounded=0;orthogonalLoop=1;jettySize=auto;html=1;entryX=0.432;entryY=-0.064;entryDx=0;entryDy=0;entryPerimeter=0;" edge="1" parent="1" source="LPWXYnSDIeVFGLM9SnJD-1" target="LPWXYnSDIeVFGLM9SnJD-18">
          <mxGeometry relative="1" as="geometry" />
        </mxCell>
        <mxCell id="YCz1P3o43b8qL185OjPD-10" value="" style="group" vertex="1" connectable="0" parent="1">
          <mxGeometry x="-42" y="459" width="850" height="554" as="geometry" />
        </mxCell>
        <mxCell id="LPWXYnSDIeVFGLM9SnJD-84" value="" style="rounded=0;whiteSpace=wrap;html=1;" parent="YCz1P3o43b8qL185OjPD-10" vertex="1">
          <mxGeometry width="849.9999999999998" height="67.15151515151514" as="geometry" />
        </mxCell>
        <mxCell id="LPWXYnSDIeVFGLM9SnJD-30" value="&lt;strong data-prosemirror-content-type=&quot;mark&quot; data-prosemirror-mark-name=&quot;strong&quot; style=&quot;forced-color-adjust: none; color: rgb(0, 0, 0); font-family: Helvetica; font-size: 12px; font-style: normal; font-variant-ligatures: normal; font-variant-caps: normal; letter-spacing: normal; orphans: 2; text-align: center; text-indent: 0px; text-transform: none; widows: 2; word-spacing: 0px; -webkit-text-stroke-width: 0px; white-space: normal; background-color: rgb(251, 251, 251); text-decoration-thickness: initial; text-decoration-style: initial; text-decoration-color: initial;&quot;&gt;Infrastructure Build Approval&lt;/strong&gt;" style="text;whiteSpace=wrap;html=1;" parent="YCz1P3o43b8qL185OjPD-10" vertex="1">
          <mxGeometry x="349.9350649350649" y="26.860606060606056" width="220.77922077922074" height="44.76767676767677" as="geometry" />
        </mxCell>
        <mxCell id="LPWXYnSDIeVFGLM9SnJD-47" value="" style="shape=table;startSize=0;container=1;collapsible=0;childLayout=tableLayout;" parent="YCz1P3o43b8qL185OjPD-10" vertex="1">
          <mxGeometry y="67.15151515151514" width="849.9999999999998" height="486.8484848484848" as="geometry" />
        </mxCell>
        <mxCell id="LPWXYnSDIeVFGLM9SnJD-52" value="" style="shape=tableRow;horizontal=0;startSize=0;swimlaneHead=0;swimlaneBody=0;strokeColor=inherit;top=0;left=0;bottom=0;right=0;collapsible=0;dropTarget=0;fillColor=none;points=[[0,0.5],[1,0.5]];portConstraint=eastwest;" parent="LPWXYnSDIeVFGLM9SnJD-47" vertex="1">
          <mxGeometry width="849.9999999999998" height="94" as="geometry" />
        </mxCell>
        <mxCell id="LPWXYnSDIeVFGLM9SnJD-53" value="Condition" style="shape=partialRectangle;html=1;whiteSpace=wrap;connectable=0;strokeColor=inherit;overflow=hidden;fillColor=none;top=0;left=0;bottom=0;right=0;pointerEvents=1;" parent="LPWXYnSDIeVFGLM9SnJD-52" vertex="1">
          <mxGeometry width="375" height="94" as="geometry">
            <mxRectangle width="375" height="94" as="alternateBounds" />
          </mxGeometry>
        </mxCell>
        <mxCell id="LPWXYnSDIeVFGLM9SnJD-54" value="Deliverable" style="shape=partialRectangle;html=1;whiteSpace=wrap;connectable=0;strokeColor=inherit;overflow=hidden;fillColor=none;top=0;left=0;bottom=0;right=0;pointerEvents=1;" parent="LPWXYnSDIeVFGLM9SnJD-52" vertex="1">
          <mxGeometry x="375" width="192" height="94" as="geometry">
            <mxRectangle width="192" height="94" as="alternateBounds" />
          </mxGeometry>
        </mxCell>
        <mxCell id="LPWXYnSDIeVFGLM9SnJD-55" value="Description" style="shape=partialRectangle;html=1;whiteSpace=wrap;connectable=0;strokeColor=inherit;overflow=hidden;fillColor=none;top=0;left=0;bottom=0;right=0;pointerEvents=1;" parent="LPWXYnSDIeVFGLM9SnJD-52" vertex="1">
          <mxGeometry x="567" width="283" height="94" as="geometry">
            <mxRectangle width="283" height="94" as="alternateBounds" />
          </mxGeometry>
        </mxCell>
        <mxCell id="LPWXYnSDIeVFGLM9SnJD-56" value="" style="shape=tableRow;horizontal=0;startSize=0;swimlaneHead=0;swimlaneBody=0;strokeColor=inherit;top=0;left=0;bottom=0;right=0;collapsible=0;dropTarget=0;fillColor=none;points=[[0,0.5],[1,0.5]];portConstraint=eastwest;" parent="LPWXYnSDIeVFGLM9SnJD-47" vertex="1">
          <mxGeometry y="94" width="849.9999999999998" height="73" as="geometry" />
        </mxCell>
        <mxCell id="LPWXYnSDIeVFGLM9SnJD-57" value="&lt;i style=&quot;text-align: left;&quot;&gt;&lt;strong style=&quot;background-color: transparent; color: light-dark(rgb(0, 0, 0), rgb(255, 255, 255));&quot; data-prosemirror-content-type=&quot;mark&quot; data-prosemirror-mark-name=&quot;strong&quot;&gt;Once&amp;nbsp;&lt;/strong&gt;&lt;strong style=&quot;background-color: transparent; color: light-dark(rgb(0, 0, 0), rgb(255, 255, 255));&quot; data-prosemirror-content-type=&quot;mark&quot; data-prosemirror-mark-name=&quot;strong&quot;&gt;per infrastructure request in case of data transfer to Spire&lt;/strong&gt;&lt;/i&gt;" style="shape=partialRectangle;html=1;whiteSpace=wrap;connectable=0;strokeColor=inherit;overflow=hidden;fillColor=none;top=0;left=0;bottom=0;right=0;pointerEvents=1;" parent="LPWXYnSDIeVFGLM9SnJD-56" vertex="1">
          <mxGeometry width="375" height="73" as="geometry">
            <mxRectangle width="375" height="73" as="alternateBounds" />
          </mxGeometry>
        </mxCell>
        <mxCell id="LPWXYnSDIeVFGLM9SnJD-58" value="&lt;strong style=&quot;text-align: left;&quot; data-prosemirror-content-type=&quot;mark&quot; data-prosemirror-mark-name=&quot;strong&quot;&gt;Usage Information for Data Sharing&lt;/strong&gt;" style="shape=partialRectangle;html=1;whiteSpace=wrap;connectable=0;strokeColor=inherit;overflow=hidden;fillColor=none;top=0;left=0;bottom=0;right=0;pointerEvents=1;" parent="LPWXYnSDIeVFGLM9SnJD-56" vertex="1">
          <mxGeometry x="375" width="192" height="73" as="geometry">
            <mxRectangle width="192" height="73" as="alternateBounds" />
          </mxGeometry>
        </mxCell>
        <mxCell id="LPWXYnSDIeVFGLM9SnJD-59" value="" style="shape=partialRectangle;html=1;whiteSpace=wrap;connectable=0;strokeColor=inherit;overflow=hidden;fillColor=none;top=0;left=0;bottom=0;right=0;pointerEvents=1;" parent="LPWXYnSDIeVFGLM9SnJD-56" vertex="1">
          <mxGeometry x="567" width="283" height="73" as="geometry">
            <mxRectangle width="283" height="73" as="alternateBounds" />
          </mxGeometry>
        </mxCell>
        <mxCell id="LPWXYnSDIeVFGLM9SnJD-60" value="" style="shape=tableRow;horizontal=0;startSize=0;swimlaneHead=0;swimlaneBody=0;strokeColor=inherit;top=0;left=0;bottom=0;right=0;collapsible=0;dropTarget=0;fillColor=none;points=[[0,0.5],[1,0.5]];portConstraint=eastwest;" parent="LPWXYnSDIeVFGLM9SnJD-47" vertex="1">
          <mxGeometry y="167" width="849.9999999999998" height="85" as="geometry" />
        </mxCell>
        <mxCell id="LPWXYnSDIeVFGLM9SnJD-61" value="&lt;strong style=&quot;text-align: left;&quot; data-prosemirror-mark-name=&quot;strong&quot; data-prosemirror-content-type=&quot;mark&quot;&gt;&lt;i&gt;Once per Information Owner and Use Case Owner&lt;/i&gt;&lt;/strong&gt;" style="shape=partialRectangle;html=1;whiteSpace=wrap;connectable=0;strokeColor=inherit;overflow=hidden;fillColor=none;top=0;left=0;bottom=0;right=0;pointerEvents=1;" parent="LPWXYnSDIeVFGLM9SnJD-60" vertex="1">
          <mxGeometry width="375" height="85" as="geometry">
            <mxRectangle width="375" height="85" as="alternateBounds" />
          </mxGeometry>
        </mxCell>
        <mxCell id="LPWXYnSDIeVFGLM9SnJD-62" value="&lt;strong style=&quot;text-align: left;&quot; data-prosemirror-mark-name=&quot;strong&quot; data-prosemirror-content-type=&quot;mark&quot;&gt;Spire Terms of Use Acknowledgement&lt;/strong&gt;" style="shape=partialRectangle;html=1;whiteSpace=wrap;connectable=0;strokeColor=inherit;overflow=hidden;fillColor=none;top=0;left=0;bottom=0;right=0;pointerEvents=1;" parent="LPWXYnSDIeVFGLM9SnJD-60" vertex="1">
          <mxGeometry x="375" width="192" height="85" as="geometry">
            <mxRectangle width="192" height="85" as="alternateBounds" />
          </mxGeometry>
        </mxCell>
        <mxCell id="LPWXYnSDIeVFGLM9SnJD-63" value="" style="shape=partialRectangle;html=1;whiteSpace=wrap;connectable=0;strokeColor=inherit;overflow=hidden;fillColor=none;top=0;left=0;bottom=0;right=0;pointerEvents=1;" parent="LPWXYnSDIeVFGLM9SnJD-60" vertex="1">
          <mxGeometry x="567" width="283" height="85" as="geometry">
            <mxRectangle width="283" height="85" as="alternateBounds" />
          </mxGeometry>
        </mxCell>
        <mxCell id="LPWXYnSDIeVFGLM9SnJD-64" value="" style="shape=tableRow;horizontal=0;startSize=0;swimlaneHead=0;swimlaneBody=0;strokeColor=inherit;top=0;left=0;bottom=0;right=0;collapsible=0;dropTarget=0;fillColor=none;points=[[0,0.5],[1,0.5]];portConstraint=eastwest;" parent="LPWXYnSDIeVFGLM9SnJD-47" vertex="1">
          <mxGeometry y="252" width="849.9999999999998" height="83" as="geometry" />
        </mxCell>
        <mxCell id="LPWXYnSDIeVFGLM9SnJD-65" value="&lt;strong style=&quot;color: light-dark(rgb(0, 0, 0), rgb(255, 255, 255)); text-align: left; background-color: transparent;&quot; data-prosemirror-mark-name=&quot;strong&quot; data-prosemirror-content-type=&quot;mark&quot;&gt;&lt;i&gt;Once per use case only if&amp;nbsp;to use case plans to use any Advanced Analytics tools or AI features&lt;/i&gt;&lt;/strong&gt;" style="shape=partialRectangle;html=1;whiteSpace=wrap;connectable=0;strokeColor=inherit;overflow=hidden;fillColor=none;top=0;left=0;bottom=0;right=0;pointerEvents=1;" parent="LPWXYnSDIeVFGLM9SnJD-64" vertex="1">
          <mxGeometry width="375" height="83" as="geometry">
            <mxRectangle width="375" height="83" as="alternateBounds" />
          </mxGeometry>
        </mxCell>
        <mxCell id="LPWXYnSDIeVFGLM9SnJD-66" value="&lt;strong style=&quot;color: light-dark(rgb(0, 0, 0), rgb(255, 255, 255)); text-align: left; background-color: transparent;&quot; data-prosemirror-mark-name=&quot;strong&quot; data-prosemirror-content-type=&quot;mark&quot;&gt;Conduct Assessment in DataQ&lt;/strong&gt;" style="shape=partialRectangle;html=1;whiteSpace=wrap;connectable=0;strokeColor=inherit;overflow=hidden;fillColor=none;top=0;left=0;bottom=0;right=0;pointerEvents=1;" parent="LPWXYnSDIeVFGLM9SnJD-64" vertex="1">
          <mxGeometry x="375" width="192" height="83" as="geometry">
            <mxRectangle width="192" height="83" as="alternateBounds" />
          </mxGeometry>
        </mxCell>
        <mxCell id="LPWXYnSDIeVFGLM9SnJD-67" value="" style="shape=partialRectangle;html=1;whiteSpace=wrap;connectable=0;strokeColor=inherit;overflow=hidden;fillColor=none;top=0;left=0;bottom=0;right=0;pointerEvents=1;" parent="LPWXYnSDIeVFGLM9SnJD-64" vertex="1">
          <mxGeometry x="567" width="283" height="83" as="geometry">
            <mxRectangle width="283" height="83" as="alternateBounds" />
          </mxGeometry>
        </mxCell>
        <mxCell id="LPWXYnSDIeVFGLM9SnJD-68" style="shape=tableRow;horizontal=0;startSize=0;swimlaneHead=0;swimlaneBody=0;strokeColor=inherit;top=0;left=0;bottom=0;right=0;collapsible=0;dropTarget=0;fillColor=none;points=[[0,0.5],[1,0.5]];portConstraint=eastwest;" parent="LPWXYnSDIeVFGLM9SnJD-47" vertex="1">
          <mxGeometry y="335" width="849.9999999999998" height="152" as="geometry" />
        </mxCell>
        <mxCell id="LPWXYnSDIeVFGLM9SnJD-69" value="&lt;strong style=&quot;color: light-dark(rgb(0, 0, 0), rgb(255, 255, 255)); text-align: left; background-color: transparent;&quot; data-prosemirror-mark-name=&quot;strong&quot; data-prosemirror-content-type=&quot;mark&quot;&gt;&lt;i&gt;Once per use case only if&amp;nbsp;to use case plans to use any Advanced Analytics tools or AI features&lt;/i&gt;&lt;/strong&gt;" style="shape=partialRectangle;html=1;whiteSpace=wrap;connectable=0;strokeColor=inherit;overflow=hidden;fillColor=none;top=0;left=0;bottom=0;right=0;pointerEvents=1;" parent="LPWXYnSDIeVFGLM9SnJD-68" vertex="1">
          <mxGeometry width="375" height="152" as="geometry">
            <mxRectangle width="375" height="152" as="alternateBounds" />
          </mxGeometry>
        </mxCell>
        <mxCell id="LPWXYnSDIeVFGLM9SnJD-70" value="&lt;strong style=&quot;text-align: left;&quot; data-prosemirror-mark-name=&quot;strong&quot; data-prosemirror-content-type=&quot;mark&quot;&gt;&lt;font style=&quot;font-size: 9px;&quot;&gt;Ensure Data Management requirements of the A22.1&amp;nbsp;&lt;/font&gt;&lt;br&gt;&lt;/strong&gt;" style="shape=partialRectangle;html=1;whiteSpace=wrap;connectable=0;strokeColor=inherit;overflow=hidden;fillColor=none;top=0;left=0;bottom=0;right=0;pointerEvents=1;" parent="LPWXYnSDIeVFGLM9SnJD-68" vertex="1">
          <mxGeometry x="375" width="192" height="152" as="geometry">
            <mxRectangle width="192" height="152" as="alternateBounds" />
          </mxGeometry>
        </mxCell>
        <mxCell id="LPWXYnSDIeVFGLM9SnJD-71" style="shape=partialRectangle;html=1;whiteSpace=wrap;connectable=0;strokeColor=inherit;overflow=hidden;fillColor=none;top=0;left=0;bottom=0;right=0;pointerEvents=1;" parent="LPWXYnSDIeVFGLM9SnJD-68" vertex="1">
          <mxGeometry x="567" width="283" height="152" as="geometry">
            <mxRectangle width="283" height="152" as="alternateBounds" />
          </mxGeometry>
        </mxCell>
        <mxCell id="YCz1P3o43b8qL185OjPD-14" value="&lt;span style=&quot;background-color: light-dark(rgb(251, 251, 251), rgb(21, 21, 21)); color: light-dark(rgb(0, 0, 0), rgb(237, 237, 237));&quot;&gt;Spire Service Desk provides your governance deliverables in the raised request&lt;/span&gt;" style="text;whiteSpace=wrap;html=1;align=center;" vertex="1" parent="1">
          <mxGeometry x="163" y="407" width="496" height="75" as="geometry" />
        </mxCell>
        <mxCell id="YCz1P3o43b8qL185OjPD-15" style="edgeStyle=orthogonalEdgeStyle;rounded=0;orthogonalLoop=1;jettySize=auto;html=1;" edge="1" parent="1" source="LPWXYnSDIeVFGLM9SnJD-18">
          <mxGeometry relative="1" as="geometry">
            <mxPoint x="409" y="378" as="targetPoint" />
          </mxGeometry>
        </mxCell>
        <mxCell id="YCz1P3o43b8qL185OjPD-39" style="edgeStyle=orthogonalEdgeStyle;rounded=0;orthogonalLoop=1;jettySize=auto;html=1;entryX=0.5;entryY=0;entryDx=0;entryDy=0;" edge="1" parent="1" source="YCz1P3o43b8qL185OjPD-26" target="LPWXYnSDIeVFGLM9SnJD-28">
          <mxGeometry relative="1" as="geometry" />
        </mxCell>
        <mxCell id="YCz1P3o43b8qL185OjPD-26" value="&lt;span style=&quot;background-color: light-dark(rgb(251, 251, 251), rgb(21, 21, 21)); color: light-dark(rgb(0, 0, 0), rgb(237, 237, 237));&quot;&gt;Prepare governance deliverables and submit in the service desk ticket&lt;/span&gt;" style="text;whiteSpace=wrap;html=1;" vertex="1" parent="1">
          <mxGeometry x="174.9988888888887" y="1267.9988888888888" width="440" height="60" as="geometry" />
        </mxCell>
        <mxCell id="YCz1P3o43b8qL185OjPD-31" style="edgeStyle=orthogonalEdgeStyle;rounded=0;orthogonalLoop=1;jettySize=auto;html=1;" edge="1" parent="1" source="YCz1P3o43b8qL185OjPD-28">
          <mxGeometry relative="1" as="geometry">
            <mxPoint x="-104.44444444444434" y="1166" as="targetPoint" />
          </mxGeometry>
        </mxCell>
        <mxCell id="YCz1P3o43b8qL185OjPD-28" value="Are you clear about the governance to get the Infra build approval?&amp;nbsp;" style="rounded=1;whiteSpace=wrap;html=1;" vertex="1" parent="1">
          <mxGeometry x="66" y="1136" width="648" height="60" as="geometry" />
        </mxCell>
        <mxCell id="YCz1P3o43b8qL185OjPD-29" style="edgeStyle=orthogonalEdgeStyle;rounded=0;orthogonalLoop=1;jettySize=auto;html=1;entryX=0.489;entryY=-0.148;entryDx=0;entryDy=0;entryPerimeter=0;" edge="1" parent="1" source="YCz1P3o43b8qL185OjPD-28" target="YCz1P3o43b8qL185OjPD-26">
          <mxGeometry relative="1" as="geometry" />
        </mxCell>
        <mxCell id="YCz1P3o43b8qL185OjPD-33" style="edgeStyle=orthogonalEdgeStyle;rounded=0;orthogonalLoop=1;jettySize=auto;html=1;exitX=0.5;exitY=0;exitDx=0;exitDy=0;entryX=0;entryY=0.25;entryDx=0;entryDy=0;" edge="1" parent="1" source="YCz1P3o43b8qL185OjPD-30" target="YCz1P3o43b8qL185OjPD-28">
          <mxGeometry relative="1" as="geometry" />
        </mxCell>
        <mxCell id="YCz1P3o43b8qL185OjPD-30" value="Comment the concern/doubt in the SD ticket" style="rounded=1;whiteSpace=wrap;html=1;" vertex="1" parent="1">
          <mxGeometry x="-757" y="1139" width="648" height="60" as="geometry" />
        </mxCell>
        <mxCell id="YCz1P3o43b8qL185OjPD-32" value="Spire Team will reach out to you&amp;nbsp;" style="rounded=1;whiteSpace=wrap;html=1;" vertex="1" parent="1">
          <mxGeometry x="-311" y="1091" width="277" height="20" as="geometry" />
        </mxCell>
        <mxCell id="YCz1P3o43b8qL185OjPD-34" value="Yes" style="rounded=1;whiteSpace=wrap;html=1;" vertex="1" parent="1">
          <mxGeometry x="323" y="1218" width="60" height="20" as="geometry" />
        </mxCell>
        <mxCell id="YCz1P3o43b8qL185OjPD-35" value="No" style="rounded=1;whiteSpace=wrap;html=1;" vertex="1" parent="1">
          <mxGeometry x="-38" y="1173" width="56" height="20" as="geometry" />
        </mxCell>
        <mxCell id="YCz1P3o43b8qL185OjPD-37" style="edgeStyle=orthogonalEdgeStyle;rounded=0;orthogonalLoop=1;jettySize=auto;html=1;entryX=0.49;entryY=0.052;entryDx=0;entryDy=0;entryPerimeter=0;" edge="1" parent="1" source="LPWXYnSDIeVFGLM9SnJD-16" target="YCz1P3o43b8qL185OjPD-28">
          <mxGeometry relative="1" as="geometry" />
        </mxCell>
        <mxCell id="YCz1P3o43b8qL185OjPD-38" value="&lt;span style=&quot;color: rgb(0, 0, 0); font-family: Helvetica; font-size: 12px; font-style: normal; font-variant-ligatures: normal; font-variant-caps: normal; font-weight: 400; letter-spacing: normal; orphans: 2; text-align: center; text-indent: 0px; text-transform: none; widows: 2; word-spacing: 0px; -webkit-text-stroke-width: 0px; white-space: normal; background-color: rgb(251, 251, 251); text-decoration-thickness: initial; text-decoration-style: initial; text-decoration-color: initial; display: inline !important; float: none;&quot;&gt;Spire Service Desk provides your governance deliverables in the raised request&lt;/span&gt;" style="text;whiteSpace=wrap;html=1;" vertex="1" parent="1">
          <mxGeometry x="165.9988888888887" y="1752" width="451" height="36" as="geometry" />
        </mxCell>
        <mxCell id="YCz1P3o43b8qL185OjPD-40" value="&lt;span style=&quot;color: rgb(0, 0, 0); font-family: Helvetica; font-size: 12px; font-style: normal; font-variant-ligatures: normal; font-variant-caps: normal; font-weight: 400; letter-spacing: normal; orphans: 2; text-align: center; text-indent: 0px; text-transform: none; widows: 2; word-spacing: 0px; -webkit-text-stroke-width: 0px; white-space: normal; background-color: rgb(251, 251, 251); text-decoration-thickness: initial; text-decoration-style: initial; text-decoration-color: initial; display: inline !important; float: none;&quot;&gt;Spire Service Desk provides your governance deliverables in the raised request&lt;/span&gt;" style="text;whiteSpace=wrap;html=1;" vertex="1" parent="1">
          <mxGeometry x="155.9988888888887" y="3276" width="451" height="36" as="geometry" />
        </mxCell>
        <mxCell id="YCz1P3o43b8qL185OjPD-41" value="&lt;span style=&quot;background-color: light-dark(rgb(251, 251, 251), rgb(21, 21, 21)); color: light-dark(rgb(0, 0, 0), rgb(237, 237, 237));&quot;&gt;Prepare governance deliverables and submit in the service desk ticket&lt;/span&gt;" style="text;whiteSpace=wrap;html=1;" vertex="1" parent="1">
          <mxGeometry x="220.9988888888887" y="2497.998888888889" width="440" height="60" as="geometry" />
        </mxCell>
        <mxCell id="YCz1P3o43b8qL185OjPD-42" style="edgeStyle=orthogonalEdgeStyle;rounded=0;orthogonalLoop=1;jettySize=auto;html=1;" edge="1" parent="1" source="YCz1P3o43b8qL185OjPD-43">
          <mxGeometry relative="1" as="geometry">
            <mxPoint x="-58.44444444444434" y="2396" as="targetPoint" />
          </mxGeometry>
        </mxCell>
        <mxCell id="YCz1P3o43b8qL185OjPD-43" value="Are you clear about the governance to get the Infra build approval?&amp;nbsp;" style="rounded=1;whiteSpace=wrap;html=1;" vertex="1" parent="1">
          <mxGeometry x="112" y="2366" width="648" height="60" as="geometry" />
        </mxCell>
        <mxCell id="YCz1P3o43b8qL185OjPD-44" style="edgeStyle=orthogonalEdgeStyle;rounded=0;orthogonalLoop=1;jettySize=auto;html=1;exitX=0.5;exitY=0;exitDx=0;exitDy=0;entryX=0;entryY=0.25;entryDx=0;entryDy=0;" edge="1" parent="1" source="YCz1P3o43b8qL185OjPD-45" target="YCz1P3o43b8qL185OjPD-43">
          <mxGeometry relative="1" as="geometry" />
        </mxCell>
        <mxCell id="YCz1P3o43b8qL185OjPD-45" value="Comment the concern/doubt in the SD ticket" style="rounded=1;whiteSpace=wrap;html=1;" vertex="1" parent="1">
          <mxGeometry x="-711" y="2369" width="648" height="60" as="geometry" />
        </mxCell>
        <mxCell id="YCz1P3o43b8qL185OjPD-46" value="Spire Team will reach out to you&amp;nbsp;" style="rounded=1;whiteSpace=wrap;html=1;" vertex="1" parent="1">
          <mxGeometry x="-265" y="2321" width="277" height="20" as="geometry" />
        </mxCell>
        <mxCell id="YCz1P3o43b8qL185OjPD-47" value="Yes" style="rounded=1;whiteSpace=wrap;html=1;" vertex="1" parent="1">
          <mxGeometry x="369" y="2448" width="60" height="20" as="geometry" />
        </mxCell>
        <mxCell id="YCz1P3o43b8qL185OjPD-48" value="No" style="rounded=1;whiteSpace=wrap;html=1;" vertex="1" parent="1">
          <mxGeometry x="8" y="2403" width="56" height="20" as="geometry" />
        </mxCell>
      </root>
    </mxGraphModel>
  </diagram>
</mxfile>
